<?xml version="1.0" encoding="utf-8"?>
<!-- Generator: Adobe Illustrator 22.0.1, SVG Export Plug-In . SVG Version: 6.00 Build 0)  -->
<svg version="1.1" id="Layer_1" xmlns="http://www.w3.org/2000/svg" xmlns:xlink="http://www.w3.org/1999/xlink" x="0px" y="0px"
	 viewBox="0 0 256 256" style="enable-background:new 0 0 256 256;" xml:space="preserve">
<style type="text/css">
	.st0{fill:#3A312A;}
	.st1{fill:#D6DF58;}
	.st2{fill:#87796F;}
	.st3{fill:#B9C239;}
	.st4{fill:#EF6D7A;}
	.st5{fill:#FCE8CB;}
	.st6{fill:#D5DE58;}
	.st7{fill:#D34E5C;}
	.st8{fill:#695B51;}
	.st9{fill:#8AC6DD;}
	.st10{fill:#D7E057;}
	.st11{fill:#B8C136;}
	.st12{fill:#F16C7A;}
	.st13{fill:#8AC2D9;}
	.st14{fill:#F7E3C7;}
	.st15{fill:#8AC3DA;}
	.st16{fill:#6DA3BC;}
	.st17{fill:#6A5C52;}
	.st18{fill:#D5DC57;}
	.st19{fill:#F6E2C6;}
	.st20{fill:#DBC7AA;}
	.st21{fill:#CE4E61;}
	.st22{fill:#FAE6CA;}
	.st23{fill:#8AC5DC;}
	.st24{fill:#DDC9AC;}
	.st25{fill:#DECAAD;}
	.st26{fill:#6CA6BE;}
	.st27{fill:#F8E4C8;}
	.st28{fill:#89C4DB;}
	.st29{fill:#ED6E7A;}
	.st30{fill:#D24E5C;}
	.st31{fill:#6DA4BD;}
	.st32{fill:#EB6E7A;}
	.st33{fill:#68A7BB;}
	.st34{fill:#B9BC37;}
	.st35{fill:#CC4E61;}
	.st36{fill:#6CA8BF;}
	.st37{fill-rule:evenodd;clip-rule:evenodd;fill:#D5DE58;}
	.st38{fill:#EA6D7A;}
	.st39{fill:#F4E0C4;}
	.st40{fill-rule:evenodd;clip-rule:evenodd;fill:#D6DF58;}
	.st41{fill-rule:evenodd;clip-rule:evenodd;fill:#F16C7A;}
	.st42{fill:#F3DEC3;}
	.st43{fill-rule:evenodd;clip-rule:evenodd;fill:#FAE6CA;}
	.st44{fill:#F59689;}
	.st45{fill-rule:evenodd;clip-rule:evenodd;fill:#F8E4C8;}
	.st46{fill-rule:evenodd;clip-rule:evenodd;fill:#FCE8CB;}
	.st47{fill:#F5978A;}
	.st48{fill:#D4DB56;}
	.st49{fill-rule:evenodd;clip-rule:evenodd;fill:#D4DA55;}
	.st50{fill-rule:evenodd;clip-rule:evenodd;fill:#EB6E7A;}
	.st51{fill:#68A6B9;}
	.st52{fill-rule:evenodd;clip-rule:evenodd;fill:#D5DC57;}
	.st53{fill:#8AC1D8;}
	.st54{fill:#F5E1C5;}
	.st55{fill:#D4D752;}
	.st56{fill:#D3D751;}
	.st57{fill:#D4D853;}
	.st58{fill:#E96C7A;}
	.st59{fill:#D4DA55;}
	.st60{fill:#8BC0D7;}
	.st61{fill:#87796F;stroke:#3A312A;stroke-width:3;stroke-linecap:round;stroke-linejoin:round;stroke-miterlimit:10;}
</style>
<g>
	<g>
		<g>
			<path class="st1" d="M71.173,94.861c-0.984,11.697-13.157,13.543-13.157,13.543c10.452,0.492,13.056,14.221,13.056,14.221
				c0.224-9.788,13.456-14.365,13.456-14.365C74.616,107.665,71.173,94.861,71.173,94.861z"/>
		</g>
	</g>
	<g>
		<g>
			<path class="st0" d="M84.619,106.762c-8.703-0.522-11.966-12.175-11.998-12.292c-0.19-0.702-0.853-1.163-1.584-1.102
				c-0.725,0.066-1.298,0.642-1.359,1.368c-0.869,10.346-11.439,12.116-11.886,12.186c-0.763,0.116-1.313,0.791-1.273,1.561
				s0.657,1.384,1.428,1.421c9.131,0.43,11.63,12.878,11.653,13.003c0.137,0.711,0.76,1.218,1.473,1.218
				c0.042,0,0.084-0.001,0.126-0.005c0.764-0.064,1.357-0.693,1.375-1.459c0.196-8.619,12.325-12.939,12.448-12.982
				c0.675-0.235,1.091-0.914,0.993-1.623C85.916,107.346,85.333,106.805,84.619,106.762z M70.915,117.246
				c-1.371-3.178-3.756-7.024-7.701-9.016c2.972-1.42,6.51-3.965,8.322-8.405c1.566,3.116,4.254,6.996,8.458,8.858
				C76.947,110.343,72.964,113.153,70.915,117.246z"/>
		</g>
	</g>
	<g>
		<g>
			<path class="st1" d="M49.255,112.036c-0.696,8.273-9.306,9.579-9.306,9.579c7.392,0.348,9.235,10.058,9.235,10.058
				c0.158-6.923,9.518-10.161,9.518-10.161C51.69,121.093,49.255,112.036,49.255,112.036z"/>
		</g>
	</g>
	<g>
		<g>
			<path class="st0" d="M58.791,120.016c-5.836-0.35-8.066-8.292-8.088-8.372c-0.19-0.702-0.865-1.167-1.582-1.102
				c-0.726,0.065-1.3,0.642-1.361,1.368c-0.586,6.963-7.737,8.175-8.036,8.222c-0.763,0.116-1.313,0.791-1.273,1.561
				s0.657,1.384,1.428,1.421c6.108,0.288,7.816,8.757,7.832,8.84c0.135,0.713,0.759,1.22,1.473,1.22
				c0.041,0,0.083-0.001,0.124-0.005c0.766-0.063,1.359-0.694,1.377-1.461c0.131-5.787,8.426-8.749,8.508-8.777
				c0.677-0.234,1.093-0.913,0.996-1.622C60.09,120.6,59.505,120.059,58.791,120.016z M49.108,126.904
				c-0.936-1.919-2.375-4.022-4.523-5.374c1.888-1.055,3.764-2.671,4.952-5.005c1.07,1.906,2.694,4.03,5.025,5.316
				C52.684,122.958,50.503,124.626,49.108,126.904z"/>
		</g>
	</g>
	<g>
		<g>
			<path class="st1" d="M49.255,85.072c-0.696,8.273-9.306,9.579-9.306,9.579c7.392,0.348,9.235,10.058,9.235,10.058
				c0.158-6.923,9.518-10.161,9.518-10.161C51.69,94.129,49.255,85.072,49.255,85.072z"/>
		</g>
	</g>
	<g>
		<g>
			<path class="st0" d="M58.791,93.053c-5.836-0.35-8.066-8.292-8.088-8.373c-0.19-0.702-0.865-1.161-1.582-1.102
				c-0.726,0.065-1.3,0.642-1.361,1.368c-0.586,6.964-7.737,8.175-8.036,8.223c-0.763,0.116-1.313,0.791-1.273,1.561
				s0.657,1.384,1.428,1.421c6.108,0.288,7.815,8.757,7.832,8.84c0.135,0.713,0.759,1.22,1.473,1.22
				c0.041,0,0.083-0.001,0.124-0.005c0.766-0.063,1.359-0.694,1.377-1.461c0.131-5.788,8.426-8.749,8.508-8.777
				c0.677-0.234,1.093-0.913,0.996-1.622C60.09,93.637,59.505,93.095,58.791,93.053z M49.108,99.94
				c-0.936-1.919-2.375-4.022-4.523-5.374c1.888-1.055,3.764-2.671,4.952-5.005c1.07,1.907,2.694,4.03,5.025,5.316
				C52.684,95.994,50.503,97.663,49.108,99.94z"/>
		</g>
	</g>
	<path class="st22" d="M163.837,240.717h72.079v-27.095c0-16.514-13.368-29.9-29.86-29.9h-19.728v-12.839
		c-5.457,3.788-11.103,6.023-16.582,6.023c-5.256,0-10.802-2.257-16.236-6.09h-0.335v12.906h-19.74
		c-16.492,0-29.86,13.386-29.86,29.9v27.095h45.345"/>
	<g>
		<g>
			<path class="st0" d="M206.056,182.222h-18.229v-11.339c0-0.558-0.31-1.07-0.805-1.329c-0.494-0.258-1.092-0.221-1.551,0.097
				c-5.501,3.819-10.792,5.755-15.727,5.755c-4.729,0-9.899-1.957-15.371-5.815c-0.253-0.179-0.555-0.274-0.864-0.274h-0.335
				c-0.828,0-1.5,0.671-1.5,1.5v11.406h-18.239c-17.292,0-31.36,14.086-31.36,31.4v27.095c0,0.829,0.672,1.5,1.5,1.5h45.345
				c0.828,0,1.5-0.671,1.5-1.5s-0.672-1.5-1.5-1.5h-43.845v-25.595c0-15.66,12.723-28.4,28.36-28.4h19.739
				c0.828,0,1.5-0.671,1.5-1.5V173.4c5.259,3.324,10.319,5.006,15.07,5.006c4.829,0,9.893-1.598,15.082-4.756v10.072
				c0,0.829,0.672,1.5,1.5,1.5h19.729c15.638,0,28.36,12.74,28.36,28.4v25.595h-70.579c-0.828,0-1.5,0.671-1.5,1.5
				s0.672,1.5,1.5,1.5h72.079c0.828,0,1.5-0.671,1.5-1.5v-27.095C237.416,196.308,223.348,182.222,206.056,182.222z"/>
		</g>
	</g>
	<path class="st23" d="M163.837,240.72h72.079v-27.107c0-16.514-13.368-29.9-29.861-29.9h-4.72l0.123,0.089l-20.521,27.252
		l-10.59-7.989l-10.589,7.989l-20.521-27.252l0.123-0.089h-5.925c-16.492,0-29.86,13.386-29.86,29.9v27.107h45.345"/>
	<g>
		<g>
			<path class="st0" d="M206.056,182.213h-4.72c-0.65,0-1.226,0.418-1.427,1.037c-0.02,0.059-0.034,0.119-0.046,0.178
				l-19.221,25.525l-9.391-7.084c-0.535-0.403-1.271-0.403-1.807,0l-9.392,7.084l-19.22-25.525c-0.012-0.06-0.026-0.119-0.046-0.178
				c-0.201-0.618-0.776-1.037-1.427-1.037h-5.926c-17.292,0-31.36,14.086-31.36,31.4v27.107c0,0.829,0.672,1.5,1.5,1.5h45.345
				c0.828,0,1.5-0.671,1.5-1.5s-0.672-1.5-1.5-1.5h-43.845v-25.607c0-15.66,12.723-28.4,28.36-28.4h4.987l20.138,26.744
				c0.239,0.318,0.596,0.528,0.989,0.583c0.397,0.054,0.794-0.048,1.112-0.288l9.687-7.307l9.686,7.307
				c0.317,0.24,0.713,0.342,1.112,0.288c0.394-0.055,0.75-0.265,0.989-0.583l20.139-26.744h3.781c15.638,0,28.36,12.74,28.36,28.4
				v25.607h-70.579c-0.828,0-1.5,0.671-1.5,1.5s0.672,1.5,1.5,1.5h72.079c0.828,0,1.5-0.671,1.5-1.5v-27.107
				C237.416,196.299,223.348,182.213,206.056,182.213z"/>
		</g>
	</g>
	<g>
		<g>
			<ellipse class="st43" cx="118.471" cy="109.602" rx="11.749" ry="11.765"/>
		</g>
	</g>
	<g>
		<g>
			<path class="st0" d="M118.472,96.336c-7.306,0-13.25,5.951-13.25,13.265s5.944,13.265,13.25,13.265s13.249-5.951,13.249-13.265
				S125.777,96.336,118.472,96.336z M118.472,119.867c-5.652,0-10.25-4.605-10.25-10.265s4.598-10.265,10.25-10.265
				c5.651,0,10.249,4.605,10.249,10.265S124.123,119.867,118.472,119.867z"/>
		</g>
	</g>
	<g>
		<g>
			<ellipse class="st43" cx="221.023" cy="109.602" rx="11.749" ry="11.765"/>
		</g>
	</g>
	<g>
		<g>
			<path class="st0" d="M221.023,96.336c-7.306,0-13.25,5.951-13.25,13.265s5.944,13.265,13.25,13.265s13.249-5.951,13.249-13.265
				S228.329,96.336,221.023,96.336z M221.023,119.867c-5.652,0-10.25-4.605-10.25-10.265s4.598-10.265,10.25-10.265
				c5.651,0,10.249,4.605,10.249,10.265S226.675,119.867,221.023,119.867z"/>
		</g>
	</g>
	<g>
		<g>
			<path class="st22" d="M169.747,51.735c-28.766,0-52.086,23.351-52.086,52.156c0,28.805,28.813,73.018,52.086,73.018
				c24.382,0,52.086-44.213,52.086-73.018C221.833,75.086,198.514,51.735,169.747,51.735z"/>
		</g>
	</g>
	<g>
		<g>
			<path class="st0" d="M169.747,50.235c-29.548,0-53.586,24.07-53.586,53.656c0,13.993,6.736,32.448,17.581,48.163
				c11.388,16.502,24.848,26.355,36.005,26.355c11.746,0,25.022-9.609,36.426-26.363c10.585-15.551,17.16-34.003,17.16-48.155
				C223.333,74.305,199.295,50.235,169.747,50.235z M169.747,175.408c-10.171,0-22.708-9.368-33.536-25.059
				c-10.517-15.24-17.05-33.042-17.05-46.458c0-27.932,22.692-50.656,50.586-50.656s50.586,22.724,50.586,50.656
				C220.333,132.129,193.2,175.408,169.747,175.408z"/>
		</g>
	</g>
	<g>
		<g>
			<path class="st0" d="M151.358,98.211c-2.808,0-5.084,2.279-5.084,5.091c0,2.812,2.276,5.091,5.084,5.091
				c2.808,0,5.084-2.279,5.084-5.091C156.442,100.49,154.166,98.211,151.358,98.211z"/>
		</g>
	</g>
	<g>
		<g>
			<path class="st0" d="M188.136,98.211c-2.808,0-5.084,2.279-5.084,5.091c0,2.812,2.276,5.091,5.084,5.091s5.084-2.279,5.084-5.091
				C193.22,100.49,190.944,98.211,188.136,98.211z"/>
		</g>
	</g>
	<g>
		<g>
			<path class="st44" d="M141.197,111.881c-4.836,0-8.757,2.935-8.757,6.556c0,3.62,3.921,6.556,8.757,6.556
				c4.837,0,8.758-2.935,8.758-6.556C149.955,114.816,146.034,111.881,141.197,111.881z"/>
		</g>
	</g>
	<g>
		<g>
			<ellipse class="st44" cx="198.297" cy="118.436" rx="8.757" ry="6.556"/>
		</g>
	</g>
	<g>
		<g>
			<path class="st2" d="M224.26,91.835c0-28.504-24.137-51.611-53.911-51.611s-53.911,23.107-53.911,51.612
				c0,3.016,0.545,5.264,1.558,8.073c0.477,1.324,8.197-2.904,8.854-3.368c3.287-2.317,5.973-5.458,7.981-8.931
				c0.83-1.444,1.523-2.913,2.08-4.383c1.777-4.688,6.605-17.734,11.508-16.711c6.574,1.372,14.026,2.148,21.931,2.148
				s15.356-0.776,21.931-2.148c4.902-1.023,9.731,12.022,11.508,16.711c0.557,1.47,1.249,2.939,2.079,4.383
				c3.316,5.744,8.918,11.213,15.733,12.208c0.017-0.33,0.433-0.442,0.743-0.555C224.573,98.452,224.26,93.626,224.26,91.835z"/>
		</g>
	</g>
	<g>
		<g>
			<path class="st0" d="M225.766,92.417l-0.006-0.582c0-29.286-24.857-53.111-55.411-53.111s-55.411,23.826-55.411,53.112
				c0,3.347,0.63,5.765,1.646,8.582c0.196,0.543,0.637,0.958,1.21,1.139c0.188,0.059,0.405,0.086,0.648,0.086
				c2.877,0,9.209-3.832,9.271-3.875c3.289-2.319,6.199-5.571,8.417-9.409c0.854-1.485,1.588-3.032,2.182-4.599l0.11-0.291
				c5.342-14.118,8.369-15.761,9.688-15.483c6.93,1.446,14.411,2.18,22.237,2.18c7.824,0,15.307-0.733,22.237-2.18
				c1.331-0.28,4.347,1.375,9.685,15.475l0.114,0.299c0.592,1.563,1.325,3.111,2.183,4.602c4.141,7.171,10.427,12.009,16.814,12.942
				c0.416,0.059,0.841-0.057,1.167-0.324c0.105-0.086,0.197-0.186,0.274-0.294c0.017-0.006,0.029-0.011,0.031-0.011
				C225.87,99.576,225.803,94.918,225.766,92.417z M221.754,97.881c-0.151,0.053-0.422,0.148-0.7,0.32
				c-5.229-1.069-10.373-5.252-13.887-11.337c-0.776-1.35-1.441-2.752-1.978-4.167l-0.113-0.299
				c-3.484-9.204-7.755-18.461-13.104-17.349c-6.729,1.404-14.005,2.116-21.624,2.116c-7.62,0-14.896-0.712-21.624-2.116
				c-5.348-1.116-9.623,8.15-13.107,17.358l-0.109,0.289c-0.538,1.417-1.203,2.819-1.977,4.164c-2,3.461-4.609,6.385-7.542,8.453
				c-0.882,0.6-5.104,2.763-6.875,3.253c-0.734-2.169-1.177-4.146-1.177-6.729c0-27.632,23.512-50.112,52.411-50.112
				s52.411,22.479,52.411,50.111l0.007,0.625C222.83,96.833,222.206,97.717,221.754,97.881z"/>
		</g>
	</g>
	<g>
		<g>
			<polygon class="st2" points="149.877,175.774 139.244,183.798 159.758,211.055 170.392,203.03 			"/>
		</g>
	</g>
	<g>
		<g>
			<path class="st0" d="M171.59,202.128l-20.514-27.256c-0.239-0.318-0.596-0.528-0.989-0.583c-0.399-0.055-0.795,0.048-1.112,0.288
				l-10.634,8.025c-0.661,0.499-0.793,1.438-0.295,2.099l20.514,27.256c0.239,0.318,0.596,0.528,0.989,0.583
				c0.07,0.01,0.14,0.015,0.209,0.015c0.324,0,0.642-0.105,0.903-0.303l10.634-8.025
				C171.956,203.729,172.088,202.789,171.59,202.128z M160.053,208.953l-18.709-24.859l8.239-6.218l18.709,24.859L160.053,208.953z"
				/>
		</g>
	</g>
	<g>
		<g>
			<polygon class="st2" points="190.819,175.774 170.305,203.03 180.939,211.055 201.453,183.798 			"/>
		</g>
	</g>
	<g>
		<g>
			<path class="st0" d="M202.356,182.601l-10.634-8.025c-0.318-0.24-0.716-0.343-1.112-0.288c-0.394,0.055-0.75,0.265-0.989,0.583
				l-20.514,27.256c-0.498,0.661-0.366,1.601,0.295,2.099l10.633,8.025c0.262,0.198,0.579,0.303,0.903,0.303
				c0.069,0,0.139-0.005,0.209-0.015c0.394-0.055,0.75-0.265,0.989-0.583l20.515-27.256
				C203.149,184.039,203.018,183.1,202.356,182.601z M180.644,208.953l-8.238-6.218l18.709-24.859l8.239,6.218L180.644,208.953z"/>
		</g>
	</g>
	<g>
		<g>
			<path class="st0" d="M128.364,217.804c-0.828,0-1.5,0.671-1.5,1.5v21.416c0,0.829,0.672,1.5,1.5,1.5s1.5-0.671,1.5-1.5v-21.416
				C129.864,218.476,129.192,217.804,128.364,217.804z"/>
		</g>
	</g>
	<g>
		<g>
			<path class="st0" d="M212.333,217.804c-0.828,0-1.5,0.671-1.5,1.5v21.416c0,0.829,0.672,1.5,1.5,1.5s1.5-0.671,1.5-1.5v-21.416
				C213.833,218.476,213.161,217.804,212.333,217.804z"/>
		</g>
	</g>
	<g>
		<g>
			<path class="st2" d="M169.375,21.491c-36.717,21.629-58.028-19.949-58.028-0.987c0,5.993,2.411,11.971,5.577,17.41l8.763,12.439
				c8.841,11.148,19.418,23.033,32.191,26.67c20.574,5.857,56.99-1.45,56.99-31.102C214.867,26.958,198.996,4.041,169.375,21.491z"
				/>
		</g>
	</g>
	<g>
		<g>
			<path class="st0" d="M201.304,16.966c-6.298-3.599-17.083-5.961-32.691,3.232c-21.365,12.588-37.273,3.032-46.778-2.677
				c-4.511-2.709-7.491-4.498-9.8-3.191c-1.938,1.097-2.188,3.875-2.188,6.174c0,5.539,1.891,11.48,5.779,18.165
				c0.022,0.038,0.046,0.074,0.07,0.109l8.763,12.438c0.017,0.023,0.033,0.046,0.052,0.068c9.47,11.94,20.017,23.497,32.955,27.18
				c4.348,1.237,9.457,1.917,14.825,1.917c10.917,0,22.901-2.811,31.696-9.451c8.099-6.115,12.38-14.764,12.38-25.01
				C216.367,35.794,211.71,22.914,201.304,16.966z M202.18,68.536c-12.336,9.315-31.417,10.595-43.892,7.043
				c-12.11-3.448-22.249-14.59-31.4-26.125l-8.701-12.35c-3.593-6.19-5.34-11.62-5.34-16.6c0-3.15,0.638-3.547,0.665-3.563
				c0.783-0.445,4.108,1.549,6.778,3.152c9.415,5.655,26.941,16.181,49.846,2.69c11.371-6.699,21.636-7.811,29.68-3.212
				c9.361,5.351,13.552,17.089,13.552,26.35C213.367,55.322,209.604,62.931,202.18,68.536z"/>
		</g>
	</g>
	<g>
		<g>
			<path class="st0" d="M184.663,135.821c-0.773-0.291-1.641,0.103-1.931,0.879c-1.034,2.766-5.079,7.996-12.987,7.996
				c-6.177,0-10.441-2.654-13.037-8.114c-0.355-0.748-1.25-1.067-1.999-0.71c-0.748,0.355-1.065,1.25-0.71,1.999
				c3.1,6.52,8.397,9.826,15.746,9.826c8.299,0,14.007-5.155,15.798-9.945C185.833,136.975,185.439,136.111,184.663,135.821z"/>
		</g>
	</g>
	<g>
		<g>
			<path class="st51" d="M206.057,185.235h-3.778l-1.859,2.468c9.899,4.42,16.809,14.373,16.809,25.914v25.591h17.172v-25.591
				C234.401,197.96,221.683,185.235,206.057,185.235z"/>
		</g>
	</g>
	<g>
		<g>
			<ellipse class="st52" cx="65.257" cy="195.205" rx="45.174" ry="45.234"/>
		</g>
	</g>
	<g>
		<g>
			<path class="st0" d="M65.257,148.471c-25.735,0-46.673,20.964-46.673,46.733s20.938,46.734,46.673,46.734
				c25.736,0,46.674-20.965,46.674-46.734S90.993,148.471,65.257,148.471z M65.257,238.938c-24.081,0-43.673-19.619-43.673-43.734
				s19.592-43.733,43.673-43.733c24.082,0,43.674,19.619,43.674,43.733S89.339,238.938,65.257,238.938z"/>
		</g>
	</g>
	<g>
		<g>
			<path class="st2" d="M65.267,163.544c-8.423,0-15.277,6.862-15.277,15.297v11.805c0,1.929,1.561,3.493,3.488,3.493
				c1.927,0,3.488-1.564,3.488-3.493v-11.805c0-4.583,3.724-8.312,8.301-8.312c4.577,0,8.301,3.729,8.301,8.312v11.805
				c0,1.929,1.561,3.493,3.488,3.493c1.927,0,3.488-1.564,3.488-3.493v-11.805C80.544,170.406,73.69,163.544,65.267,163.544z"/>
		</g>
	</g>
	<g>
		<g>
			<path class="st0" d="M65.267,162.043c-9.251,0-16.776,7.535-16.776,16.797v11.805c0,2.753,2.237,4.993,4.987,4.993
				c2.751,0,4.988-2.24,4.988-4.993v-11.805c0-3.756,3.051-6.812,6.801-6.812s6.801,3.056,6.801,6.812v11.805
				c0,2.753,2.237,4.993,4.988,4.993s4.988-2.24,4.988-4.993v-11.805C82.044,169.579,74.518,162.043,65.267,162.043z
				 M79.044,190.646c0,1.099-0.892,1.993-1.988,1.993s-1.988-0.894-1.988-1.993v-11.805c0-5.41-4.396-9.812-9.801-9.812
				s-9.801,4.402-9.801,9.812v11.805c0,1.099-0.892,1.993-1.988,1.993c-1.096,0-1.987-0.894-1.987-1.993v-11.805
				c0-7.608,6.18-13.797,13.776-13.797s13.777,6.189,13.777,13.797V190.646z"/>
		</g>
	</g>
	<g>
		<g>
			<path class="st29" d="M76.036,189.51H54.498c-4.313,0-7.809,3.496-7.809,7.809v21.588c0,4.313,3.496,7.809,7.809,7.809h21.538
				c4.313,0,7.809-3.496,7.809-7.809v-21.587C83.845,193.007,80.348,189.51,76.036,189.51z"/>
		</g>
	</g>
	<g>
		<g>
			<path class="st0" d="M76.035,188.01H54.497c-5.133,0-9.309,4.176-9.309,9.309v21.587c0,5.133,4.176,9.309,9.309,9.309h21.538
				c5.134,0,9.31-4.176,9.31-9.309v-21.587C85.345,192.187,81.169,188.01,76.035,188.01z M82.345,218.907
				c0,3.479-2.83,6.309-6.31,6.309H54.497c-3.479,0-6.309-2.83-6.309-6.309v-21.587c0-3.479,2.83-6.309,6.309-6.309h21.538
				c3.479,0,6.31,2.83,6.31,6.309V218.907z"/>
		</g>
	</g>
	<g>
		<g>
			<path class="st2" d="M65.267,197.794c-3.131,0-5.669,2.541-5.669,5.677c0,2.261,1.33,4.196,3.24,5.109v7.46
				c0,1.344,1.088,2.433,2.43,2.433c1.342,0,2.43-1.089,2.43-2.433v-7.46c1.91-0.913,3.24-2.849,3.24-5.109
				C70.936,200.335,68.398,197.794,65.267,197.794z"/>
		</g>
	</g>
	<g>
		<g>
			<path class="st0" d="M65.267,196.294c-3.953,0-7.169,3.219-7.169,7.177c0,2.451,1.22,4.667,3.239,5.983v6.586
				c0,2.168,1.763,3.933,3.93,3.933s3.93-1.764,3.93-3.933v-6.586c2.02-1.317,3.239-3.532,3.239-5.983
				C72.436,199.513,69.22,196.294,65.267,196.294z M67.05,207.226c-0.521,0.25-0.854,0.776-0.854,1.354v7.46
				c0,0.514-0.417,0.933-0.93,0.933s-0.93-0.418-0.93-0.933v-7.46c0-0.578-0.332-1.104-0.854-1.354
				c-1.472-0.704-2.386-2.143-2.386-3.755c0-2.303,1.87-4.177,4.169-4.177s4.169,1.874,4.169,4.177
				C69.436,205.083,68.521,206.522,67.05,207.226z"/>
		</g>
	</g>
</g>
</svg>
